<svg id="facebook-logo" xmlns="http://www.w3.org/2000/svg" width="100.005" height="100.005" viewBox="0 0 100.005 100.005">
  <path id="Caminho_6" data-name="Caminho 6" d="M100,50A50,50,0,1,0,42.189,99.4V64.456h-12.7V50h12.7V38.986c0-12.532,7.465-19.454,18.887-19.454a76.9,76.9,0,0,1,11.193.977V32.814H65.964c-6.212,0-8.149,3.854-8.149,7.809V50H71.683L69.466,64.456H57.815V99.4A50.015,50.015,0,0,0,100,50" fill="#1877f2"/>
  <path id="Caminho_7" data-name="Caminho 7" d="M442.64,311.591l2.217-14.454H430.989v-9.38c0-3.954,1.937-7.809,8.149-7.809h6.305V267.644a76.9,76.9,0,0,0-11.193-.977c-11.422,0-18.887,6.922-18.887,19.454v11.016h-12.7v14.454h12.7v34.941a50.547,50.547,0,0,0,15.626,0V311.591H442.64" transform="translate(-373.173 -247.135)" fill="#fff"/>
</svg>
