<svg id="google-logo" xmlns="http://www.w3.org/2000/svg" width="99.998" height="99.998" viewBox="0 0 99.998 99.998">
  <path id="Caminho_1" data-name="Caminho 1" d="M47.226,19.791a27.177,27.177,0,0,1,19.187,7.5l14.27-14.27A48.1,48.1,0,0,0,47.226,0,49.974,49.974,0,0,0,2.56,27.541l16.625,12.9C23.122,28.583,34.184,19.791,47.226,19.791Z" transform="translate(2.773)" fill="#ea4335"/>
  <path id="Caminho_2" data-name="Caminho 2" d="M71.874,29.479A60.816,60.816,0,0,0,71.082,20H24V38.791H50.958A23.24,23.24,0,0,1,41,53.749l16.1,12.5c9.4-8.708,14.77-21.583,14.77-36.77Z" transform="translate(25.999 21.666)" fill="#4285f4"/>
  <path id="Caminho_3" data-name="Caminho 3" d="M21.937,45.24a30.371,30.371,0,0,1-1.583-9.562,29.789,29.789,0,0,1,1.583-9.562L5.312,13.22a50.038,50.038,0,0,0,.021,44.916l16.6-12.9Z" transform="translate(0 14.321)" fill="#fbbc05"/>
  <path id="Caminho_4" data-name="Caminho 4" d="M47.236,69.037c13.5,0,24.854-4.437,33.1-12.1l-16.1-12.5a30.076,30.076,0,0,1-17,4.792c-13.041,0-24.1-8.791-28.062-20.645L2.55,41.476A50.01,50.01,0,0,0,47.236,69.037Z" transform="translate(2.762 30.96)" fill="#34a853"/>
  <path id="Caminho_5" data-name="Caminho 5" d="M0,0H100V100H0Z" fill="none"/>
</svg>
