<?xml version="1.0" encoding="UTF-8"?>
<!DOCTYPE svg PUBLIC "-//W3C//DTD SVG 1.1//EN" "http://www.w3.org/Graphics/SVG/1.1/DTD/svg11.dtd">
<!-- Creator: CorelDRAW 2019 (64 Bit) -->
<svg xmlns="http://www.w3.org/2000/svg" xml:space="preserve" width="46.5666mm" height="13.5466mm" version="1.1" style="shape-rendering:geometricPrecision; text-rendering:geometricPrecision; image-rendering:optimizeQuality; fill-rule:evenodd; clip-rule:evenodd"
viewBox="0 0 4656.66 1354.66"
 xmlns:xlink="http://www.w3.org/1999/xlink">
 <defs>
  <style type="text/css">
   <![CDATA[
    .fil1 {fill:black}
    .fil2 {fill:#1247C7}
    .fil0 {fill:black;fill-rule:nonzero}
   ]]>
  </style>
 </defs>
 <g id="Camada_x0020_1">
  <metadata id="CorelCorpID_0Corel-Layer"/>
  <g id="_1282246048">
   <g>
    <path class="fil0" d="M590.04 288.49c9.77,0 19.33,0.94 28.65,2.8 9.21,1.84 18.32,4.7 27.31,8.54 8.5,3.64 16.57,8.03 24.18,13.14 7.98,5.35 15.08,11.16 21.28,17.36l-0.07 0.07c6.49,6.49 12.27,13.43 17.28,20.76 5.11,7.48 9.5,15.37 13.14,23.63 3.47,7.87 6.51,16.46 8.8,25.86 2.38,9.81 3.78,19.86 3.78,29.99l0 48.46 -135.49 0 0 -48.46 0 -7.75 -294.97 0c-40.34,0 -62.21,5.6 -62.21,50.18 0,42.41 23.82,50.18 62.21,50.18l239.43 0c30.9,0 61.4,4.21 87.51,12.56 27.32,8.76 50.33,22.43 65.43,41.16 13.54,16.81 23.73,35.64 30.55,58.04 6.48,21.34 9.74,45.15 9.74,72.82 0,27 -3.68,52.8 -11.02,75.88 -7.62,23.95 -19.27,44.78 -34.93,60.92 -15.99,16.5 -38.59,28.57 -64.35,36.35l-0.14 0c-25.24,7.6 -54.19,11.43 -82.79,11.43l-285.82 0c-19.66,0 -38.33,-3.79 -55.95,-11.34 -8.52,-3.64 -16.6,-8.05 -24.2,-13.14 -7.96,-5.36 -15.07,-11.15 -21.27,-17.35 -6.19,-6.2 -11.99,-13.3 -17.35,-21.28 -5.09,-7.58 -9.49,-15.66 -13.14,-24.18 -7.55,-17.62 -11.34,-35.92 -11.34,-54.86l0 -48.45 134.4 0 0 48.45 0 9.03 294.67 0c41.41,0 59.78,-9.28 58.84,-51.46 0,-41.63 -20.11,-50.18 -58.84,-50.18l-239.43 0c-31.07,0 -62.3,-4.19 -88.97,-12.54 -27.78,-8.7 -51.39,-22.26 -66.64,-40.89l0.08 -0.06c-13.88,-16.96 -24.29,-35.83 -31.19,-58.12 -6.58,-21.26 -9.88,-45.12 -9.88,-72.97 0,-27.16 3.73,-53.02 11.17,-76.03 7.74,-23.95 19.56,-44.77 35.47,-60.92 16.1,-16.34 39.28,-28.33 65.55,-36.07 26.12,-7.7 55.85,-11.56 84.41,-11.56l286.11 0z"/>
    <path class="fil1" d="M1315.69 694.05l0 -405.57 134.39 0 0 405.57c0,27.22 -4.74,53.02 -14.2,77.38 -4.84,12.45 -10.66,23.94 -17.42,34.42 -6.92,10.71 -14.94,20.66 -24.06,29.77l0.08 0.07c-8.76,8.76 -18.73,16.77 -29.84,23.98 -10.73,6.97 -22.26,12.92 -34.54,17.83 -12.28,4.91 -25.35,8.63 -39.13,11.14 -13.8,2.5 -27.62,3.76 -41.45,3.76l-228.14 0c-13.94,0 -27.76,-1.26 -41.44,-3.76 -13.79,-2.53 -26.72,-6.24 -38.74,-11.14 -12.21,-4.97 -23.6,-10.94 -34.12,-17.83 -10.48,-6.87 -20.29,-14.87 -29.41,-23.98l-0.14 -0.14c-9.11,-9.12 -17.11,-18.93 -23.98,-29.41 -6.89,-10.52 -12.86,-21.91 -17.83,-34.12 -4.88,-12.01 -8.61,-24.71 -11.14,-38.03 -2.5,-13.23 -3.76,-26.55 -3.76,-39.94l0 -405.57 134.39 0 0 405.57c0,20.53 5.72,36.51 17.14,47.93l-0.07 0.06c5.59,5.58 12.12,9.77 19.54,12.53 8.13,3.02 17.99,4.54 29.56,4.54l228.14 0c11.57,0 21.43,-1.52 29.57,-4.54 7.28,-2.71 13.79,-6.92 19.46,-12.59l0.15 0c5.51,-5.52 9.67,-11.98 12.46,-19.35 3.01,-8 4.53,-17.54 4.53,-28.58z"/>
    <polygon class="fil1" points="1682.95,82.35 1682.95,892.41 1548.55,892.41 1548.55,44.91 1682.95,44.91 "/>
    <path class="fil0" d="M1917.3 82.35l0 95.86 -134.4 0 0 -133.3 134.4 0 0 37.44zm-134.4 772.62l0 -566.48 134.4 0 0 603.92 -134.4 0 0 -37.44z"/>
    <polygon class="fil1" points="2377.5,892.41 2303.23,892.41 1986.18,288.49 2136.57,288.49 2351.04,692.5 2565.51,288.49 2717.01,288.49 2399.95,892.41 "/>
    <path class="fil0" d="M4015.9 892.41l-96.95 0 0 -413.05c0,-10.91 -1.52,-20.35 -4.54,-28.3l0 -0.14c-2.72,-7.15 -6.83,-13.42 -12.31,-18.78 -5.49,-5.39 -12,-9.46 -19.47,-12.19 -8.31,-3.02 -18.28,-4.55 -29.85,-4.55l-228.15 0c-11.57,0 -21.52,1.53 -29.84,4.56 -7.48,2.73 -13.99,6.79 -19.48,12.18 -5.4,5.3 -9.52,11.62 -12.29,18.92 -3.03,7.96 -4.55,17.41 -4.55,28.3l0 413.05 -134.39 0 0 -413.05c0,-13.73 1.25,-27.28 3.76,-40.61 2.52,-13.39 6.29,-26.14 11.29,-38.2 4.93,-11.89 10.88,-23.1 17.82,-33.55 7.13,-10.77 15.09,-20.54 23.84,-29.28 8.89,-8.89 18.76,-16.9 29.56,-23.99 10.53,-6.91 21.9,-12.86 34.11,-17.82 12.01,-4.89 24.93,-8.61 38.73,-11.14 13.68,-2.51 27.51,-3.77 41.44,-3.77l228.15 0c15.63,0 31.12,1.63 46.46,4.88 14.97,3.17 29.74,8 44.25,14.47 15.21,6.77 28.89,15.2 41,25.23l2.06 1.74 2.1 -1.75c12.43,-10.2 25.96,-18.62 40.56,-25.22 14.16,-6.41 28.82,-11.24 43.99,-14.47 15.21,-3.24 30.66,-4.88 46.31,-4.88l229.25 0c13.92,0 27.75,1.26 41.42,3.77 13.81,2.53 26.74,6.25 38.75,11.14 12.21,4.96 23.59,10.92 34.11,17.82 10.8,7.09 20.68,15.1 29.57,23.99 8.75,8.74 16.71,18.51 23.83,29.27 6.93,10.46 12.89,21.66 17.82,33.56 5.01,12.05 8.78,24.8 11.3,38.2 2.5,13.33 3.76,26.9 3.76,40.61l0 413.05 -135.5 0 0 -413.05c0,-10.91 -1.52,-20.35 -4.54,-28.3l0 -0.14c-2.72,-7.15 -6.83,-13.42 -12.3,-18.78 -5.48,-5.37 -11.94,-9.44 -19.35,-12.19 -8.19,-3.02 -17.84,-4.55 -28.87,-4.55l-229.25 0c-11.57,0 -21.54,1.53 -29.86,4.56 -7.48,2.73 -13.98,6.79 -19.46,12.18 -5.42,5.3 -9.53,11.63 -12.31,18.92 -3.02,7.96 -4.54,17.41 -4.54,28.3l0 413.05 -37.44 0z"/>
    <path class="fil0" d="M2927.65 759.46l271.92 0 0 -284.49c0,-14.4 -5.9,-27.51 -15.41,-37.01l0 -0.14c-9.4,-9.41 -22.52,-15.26 -37.01,-15.26l-223.62 0c-10.76,0 -19.25,1.29 -26.08,3.97 -6.32,2.49 -12.1,6.56 -17.79,12.24l0.06 0.07c-5.65,5.65 -9.86,12.16 -12.58,19.49 -3.03,8.14 -4.56,18 -4.56,29.54l0 205.42c0,11.53 1.54,21.39 4.56,29.54 2.72,7.32 6.93,13.84 12.58,19.49 5.64,5.64 12.11,9.85 19.36,12.59 8.02,3.02 17.55,4.55 28.57,4.55zm271.92 58.1l-84.41 76.29 -187.51 0c-13.03,0 -26.26,-1.22 -39.61,-3.63 -13.12,-2.38 -25.75,-5.92 -37.77,-10.58 -12.43,-4.81 -23.9,-10.62 -34.39,-17.39 -10.73,-6.93 -20.69,-14.96 -29.8,-24.08l-0.07 0.07c-8.76,-8.75 -16.77,-18.72 -23.99,-29.84 -6.96,-10.72 -12.92,-22.26 -17.82,-34.53 -4.92,-12.29 -8.63,-25.35 -11.14,-39.14 -2.51,-13.8 -3.76,-27.62 -3.76,-41.44l0 -205.42c0,-13.94 1.25,-27.77 3.76,-41.45 2.53,-13.8 6.25,-26.72 11.14,-38.72 4.96,-12.22 10.91,-23.59 17.82,-34.12 7.09,-10.8 15.1,-20.67 23.99,-29.56 8.89,-8.89 18.76,-16.9 29.56,-23.99 10.53,-6.9 21.9,-12.86 34.11,-17.82 12.01,-4.9 24.71,-8.61 38.03,-11.13 13.23,-2.51 26.55,-3.77 39.94,-3.77l211.63 0c53.63,0 102.32,21.87 137.57,57.12l-0.08 0.07c35.31,35.33 57.19,84 57.19,137.49l0 411.69 -134.39 0 0 -76.12z"/>
   </g>
   <path class="fil2" d="M988.92 1309.74c-6.48,0 -12.79,-0.65 -18.92,-1.94 -6.13,-1.29 -12.04,-3.22 -17.7,-5.8 -5.74,-2.6 -10.9,-5.73 -15.47,-9.4 -4.61,-3.69 -8.61,-7.91 -12,-12.62l-2.49 -3.49 21.7 -22.42 3.67 4.26c5.68,6.6 12,11.53 18.92,14.79 6.88,3.23 14.48,4.85 22.78,4.85 10.18,0 18.33,-2.38 24.44,-7.14 2.91,-2.27 5.08,-4.84 6.5,-7.69 1.4,-2.83 2.1,-6.03 2.1,-9.58 0,-1.57 -0.15,-2.97 -0.45,-4.17l-0.55 -1.97 -0.65 -1.66c-0.15,-0.34 -0.37,-0.72 -0.64,-1.13 -0.29,-0.42 -0.65,-0.86 -1.08,-1.32l-3.12 -3.24c-0.26,-0.24 -0.6,-0.52 -1.02,-0.8 -0.54,-0.38 -1.24,-0.8 -2.09,-1.26l-4.76 -2.63c-0.41,-0.24 -1.02,-0.54 -1.81,-0.89l-3.05 -1.26c-6.35,-2.4 -12.74,-4.65 -19.17,-6.83 -3.9,-1.37 -7.43,-2.68 -10.6,-3.94 -3.34,-1.33 -6.28,-2.6 -8.8,-3.8 -2.6,-1.23 -5.3,-2.71 -8.07,-4.39 -2.77,-1.68 -5.5,-3.51 -8.18,-5.48 -5.94,-4.36 -10.42,-9.69 -13.42,-15.98 -1.5,-3.14 -2.63,-6.51 -3.36,-10.1 -0.74,-3.57 -1.11,-7.32 -1.11,-11.22 0,-8.54 1.55,-16.18 4.64,-22.89 3.13,-6.79 7.81,-12.57 14.03,-17.31 6.05,-4.62 12.93,-8.07 20.6,-10.37 7.58,-2.26 15.94,-3.39 25.04,-3.39 9.8,0 19.21,1.46 28.22,4.39 8.94,2.91 17.47,7.28 25.56,13.11l4.06 2.93 -17.56 25.98 -4.3 -3.02c-5.93,-4.16 -11.92,-7.27 -17.98,-9.32 -5.96,-2.03 -12.05,-3.04 -18.24,-3.04 -4.68,0 -8.88,0.5 -12.58,1.52 -3.6,0.99 -6.82,2.47 -9.62,4.43 -2.57,1.79 -4.49,3.95 -5.74,6.46 -1.26,2.56 -1.9,5.57 -1.9,9.04 0,3.47 0.63,6.44 1.88,8.87 0.56,1.1 1.39,2.18 2.45,3.23 1.19,1.18 2.66,2.29 4.39,3.34 2.01,1.21 3.86,2.27 5.55,3.17 1.64,0.86 3.14,1.58 4.48,2.14 1.59,0.66 3.45,1.39 5.59,2.18 8.11,2.9 16.23,5.77 24.32,8.73 1.49,0.57 3.19,1.25 5.07,2.05l6.82 3c2.75,1.24 5.16,2.47 7.2,3.66 2.2,1.3 4.07,2.6 5.59,3.88 1.39,1.18 2.86,2.51 4.4,4.02 1.39,1.35 2.94,2.94 4.66,4.79 1.85,1.98 3.43,4.11 4.72,6.36 1.3,2.27 2.34,4.69 3.11,7.24 0.72,2.37 1.27,4.94 1.64,7.67 0.37,2.7 0.56,5.45 0.56,8.23 0,8.65 -1.7,16.5 -5.09,23.53 -3.39,7.04 -8.44,13.17 -15.15,18.38 -6.56,5.1 -13.88,8.93 -21.95,11.47 -7.98,2.53 -16.68,3.79 -26.07,3.79zm404.67 -26.69c-8.24,8.9 -17.79,15.58 -28.61,20.03 -10.8,4.44 -22.82,6.66 -36.03,6.66 -13.24,0 -25.25,-2.2 -36.04,-6.6 -10.84,-4.43 -20.42,-11.08 -28.71,-19.95 -8.27,-8.84 -14.47,-19.05 -18.58,-30.63 -4.08,-11.49 -6.13,-24.31 -6.13,-38.43 0,-14.19 2.05,-27.1 6.13,-38.69 4.11,-11.71 10.29,-22.04 18.53,-30.98 8.27,-8.97 17.86,-15.71 28.74,-20.21 10.81,-4.48 22.84,-6.72 36.06,-6.72 26.64,0 48.19,8.94 64.66,26.81 8.2,8.89 14.35,19.19 18.45,30.88 4.06,11.58 6.09,24.47 6.09,38.66 0,14.12 -2.03,26.95 -6.09,38.47 -4.08,11.59 -10.25,21.82 -18.47,30.7zm-64.64 -6.06c8.03,0 15.25,-1.36 21.64,-4.08 6.38,-2.71 12.03,-6.78 16.94,-12.2 4.92,-5.45 8.63,-12.01 11.11,-19.69 2.53,-7.83 3.8,-16.88 3.8,-27.14 0,-10.35 -1.27,-19.47 -3.8,-27.36 -2.48,-7.72 -6.2,-14.34 -11.14,-19.84 -4.91,-5.48 -10.56,-9.59 -16.91,-12.3 -6.4,-2.73 -13.62,-4.1 -21.64,-4.1 -16.08,0 -29.07,5.47 -38.95,16.4 -4.96,5.48 -8.71,12.1 -11.21,19.84 -2.55,7.9 -3.83,17.02 -3.83,27.36 0,20.2 5.02,35.81 15.04,46.81 4.95,5.44 10.65,9.53 17.07,12.22 6.44,2.72 13.74,4.08 21.88,4.08zm396.22 -124.25l-77.16 0 0 42.67 71.23 0 0 32.01 -71.23 0 0 79.61 -34.72 0 0 -170.05c0,-2.47 0.44,-4.75 1.33,-6.81 0.94,-2.16 2.35,-3.99 4.22,-5.47 1.66,-1.32 3.45,-2.31 5.36,-2.97 1.93,-0.67 3.96,-1 6.08,-1l100.05 0 0 32.01 -5.16 0zm319.8 -26.85l0 26.61 -53.48 0 0 154.53 -34.73 0 0 -154.53 -53.48 0 0 -31.77 141.69 0 0 5.16zm382.43 -5.16l32.27 0 -44.28 173.54c-1.24,5.21 -4.08,9.17 -8.49,11.83 -4.04,2.43 -9.28,3.64 -15.73,3.64 -6.21,0 -11.32,-1.22 -15.31,-3.66 -4.32,-2.63 -7.2,-6.55 -8.63,-11.71l-26.32 -90.99 -26.09 90.72c-1.42,5.24 -4.36,9.22 -8.79,11.92 -4.08,2.48 -9.31,3.72 -15.66,3.72 -6.45,0 -11.7,-1.22 -15.73,-3.64 -4.44,-2.68 -7.29,-6.66 -8.52,-11.94l-43.22 -173.43 37.3 0 31.96 136.53 34.28 -116.82 29.64 0 34.56 117.48 32.68 -137.19 4.08 0zm328.76 182.85l-18.01 -51.02 -63.2 0 -19.23 54.47 -37.66 0 62.96 -169.35c2.09,-5.71 5.34,-10.06 9.71,-13.02 4.34,-2.95 9.61,-4.42 15.82,-4.42 3.19,0 6.11,0.33 8.74,0.99 2.79,0.7 5.25,1.8 7.37,3.26 2.12,1.46 4,3.36 5.64,5.68 1.52,2.17 2.86,4.73 4,7.67 8.4,11.9 53.02,142.9 62.76,169.19l-37.68 0 -1.22 -3.45zm-69.91 -82.79l40.61 0 -20.31 -57.29 -20.3 57.29zm378.34 83.72l-41.13 -68.71 -15.09 0 0 71.23 -34.48 0 0 -170.29c0,-2.21 0.41,-4.3 1.2,-6.24 0.81,-1.97 2.02,-3.72 3.6,-5.24 1.55,-1.5 3.32,-2.63 5.26,-3.4 1.96,-0.75 4.02,-1.13 6.19,-1.13l49.05 0c9.64,0 18.27,1.31 25.85,3.94 7.76,2.68 14.36,6.72 19.8,12.12 5.39,5.34 9.45,11.56 12.17,18.63 2.69,6.96 4.03,14.71 4.03,23.21 0,14.91 -4.12,27.16 -12.34,36.75 -4.13,4.82 -9.14,8.79 -15,11.9 -3.79,2.01 -7.95,3.67 -12.48,4.97l47.49 74.78 -42.61 0 -1.51 -2.52zm-56.22 -152.01l0 52.27 25.4 0c5.51,0 10.31,-0.61 14.39,-1.84 3.87,-1.16 7.11,-2.88 9.71,-5.13 2.54,-2.23 4.45,-4.91 5.71,-8.05 1.32,-3.28 1.99,-7.16 1.99,-11.61 0,-7.98 -2.54,-14.21 -7.61,-18.68 -2.58,-2.28 -5.73,-3.99 -9.44,-5.14 -3.91,-1.21 -8.5,-1.82 -13.77,-1.82l-26.38 0zm404.36 0.24l-79.86 0 0 42.67 76.65 0 0 32.01 -76.65 0 0 47.6 82.81 0 0 32.01 -117.54 0 0 -170.05c0,-2.47 0.45,-4.75 1.34,-6.81 0.93,-2.16 2.34,-3.99 4.21,-5.47 1.67,-1.32 3.46,-2.32 5.37,-2.97 1.92,-0.67 3.95,-1 6.07,-1l102.77 0 0 32.01 -5.17 0zm251.79 157c-6.47,0 -12.78,-0.65 -18.91,-1.94 -6.14,-1.29 -12.04,-3.22 -17.71,-5.8 -5.7,-2.58 -10.85,-5.72 -15.44,-9.4 -4.63,-3.69 -8.64,-7.91 -12.02,-12.62l-2.5 -3.49 21.7 -22.42 3.67 4.26c5.69,6.6 12,11.53 18.93,14.79 6.88,3.23 14.48,4.85 22.78,4.85 10.17,0 18.32,-2.38 24.43,-7.14 2.92,-2.27 5.09,-4.84 6.5,-7.69 1.4,-2.83 2.11,-6.03 2.11,-9.58 0,-1.57 -0.16,-2.97 -0.46,-4.17l-0.55 -1.97 -0.64 -1.66c-0.14,-0.34 -0.35,-0.71 -0.63,-1.11 -0.29,-0.42 -0.66,-0.87 -1.1,-1.34l-3.13 -3.26c-0.22,-0.21 -0.55,-0.48 -1,-0.78 -0.55,-0.38 -1.25,-0.8 -2.09,-1.26l-4.77 -2.63c-0.41,-0.24 -1.01,-0.54 -1.81,-0.89l-3.04 -1.26c-6.35,-2.4 -12.74,-4.65 -19.17,-6.83 -3.9,-1.37 -7.44,-2.68 -10.6,-3.94 -3.35,-1.33 -6.28,-2.6 -8.8,-3.8 -2.61,-1.23 -5.31,-2.71 -8.08,-4.39 -2.76,-1.68 -5.49,-3.51 -8.17,-5.48 -5.94,-4.36 -10.42,-9.69 -13.43,-15.98 -1.49,-3.14 -2.62,-6.51 -3.36,-10.1 -0.73,-3.57 -1.1,-7.32 -1.1,-11.22 0,-8.54 1.55,-16.18 4.64,-22.89 3.12,-6.79 7.81,-12.57 14.03,-17.31 6.05,-4.62 12.92,-8.07 20.6,-10.37 7.58,-2.26 15.93,-3.39 25.04,-3.39 9.8,0 19.21,1.46 28.21,4.39 8.95,2.91 17.48,7.28 25.56,13.11l4.07 2.93 -17.56 25.98 -4.3 -3.02c-5.93,-4.16 -11.92,-7.27 -17.98,-9.32 -5.97,-2.03 -12.05,-3.04 -18.25,-3.04 -4.68,0 -8.87,0.5 -12.57,1.52 -3.61,0.99 -6.82,2.47 -9.62,4.43 -2.57,1.79 -4.49,3.95 -5.74,6.46 -1.26,2.56 -1.9,5.57 -1.9,9.04 0,3.47 0.63,6.44 1.88,8.87 0.56,1.1 1.38,2.18 2.45,3.23 1.17,1.15 2.64,2.27 4.4,3.34 2,1.21 3.85,2.27 5.54,3.17 1.63,0.86 3.14,1.58 4.48,2.14 1.59,0.66 3.46,1.39 5.59,2.18 8.1,2.9 16.22,5.77 24.31,8.73 1.5,0.57 3.19,1.25 5.07,2.05l6.82 3c2.65,1.19 5.06,2.43 7.2,3.68 2.21,1.29 4.08,2.58 5.6,3.86 1.38,1.18 2.86,2.51 4.4,4.02 1.39,1.35 2.94,2.94 4.65,4.79 1.86,1.98 3.44,4.11 4.73,6.36 1.29,2.25 2.33,4.67 3.1,7.24 0.72,2.37 1.28,4.94 1.65,7.67 0.36,2.7 0.55,5.45 0.55,8.23 0,8.65 -1.69,16.5 -5.08,23.53 -3.39,7.04 -8.45,13.18 -15.15,18.38 -6.56,5.1 -13.89,8.93 -21.95,11.47 -7.99,2.53 -16.69,3.79 -26.08,3.79z"/>
  </g>
 </g>
</svg>
